<?xml version="1.0" encoding="utf-8"?>
<!-- Generator: Adobe Illustrator 16.0.0, SVG Export Plug-In . SVG Version: 6.00 Build 0)  -->
<!DOCTYPE svg PUBLIC "-//W3C//DTD SVG 1.1//EN" "http://www.w3.org/Graphics/SVG/1.1/DTD/svg11.dtd">
<svg version="1.1" xmlns="http://www.w3.org/2000/svg" xmlns:xlink="http://www.w3.org/1999/xlink" x="0px" y="0px" width="60px"
	 height="60px" viewBox="0 0 60 60" enable-background="new 0 0 60 60" xml:space="preserve">
<g id="Layer_1">
</g>
<g id="txt">
	<linearGradient id="SVGID_2_" gradientUnits="userSpaceOnUse" x1="30" y1="58.4287" x2="30" y2="6.3545">
		<stop  offset="0" style="stop-color:#477256"/>
		<stop  offset="1" style="stop-color:#135D6B"/>
	</linearGradient>
	<rect fill="url(#SVGID_2_)" width="60" height="60.001"/>
	<g>
		<path fill="#FFFFFF" d="M47.678,49.464c0,1.09-0.877,1.973-1.959,1.973H14.283c-1.084,0-1.961-0.883-1.961-1.973V21.993
			c0-1.09,0.877-1.973,1.961-1.973h31.436c1.082,0,1.959,0.883,1.959,1.973V49.464z"/>
		<g>
			<g>
				<path fill="none" stroke="#293F54" stroke-width="0.5669" stroke-miterlimit="10" d="M45.875,48.728c0,0.553-0.447,1-1,1H15.313
					c-0.552,0-1-0.447-1-1v-26c0-0.553,0.448-1,1-1h29.563c0.553,0,1,0.447,1,1V48.728z"/>
				
					<line fill="none" stroke="#293F54" stroke-width="0.5669" stroke-miterlimit="10" x1="14.125" y1="28.665" x2="45.813" y2="28.665"/>
				<circle fill="#00B1CC" cx="16.875" cy="25.29" r="0.813"/>
				<circle fill="#00B1CC" cx="20.875" cy="25.29" r="0.813"/>
				<circle fill="#00B1CC" cx="24.875" cy="25.29" r="0.813"/>
				<circle fill="#293F54" cx="30.25" cy="25.29" r="0.5"/>
				<circle fill="#293F54" cx="32.775" cy="25.29" r="0.5"/>
				<circle fill="#293F54" cx="35.301" cy="25.29" r="0.5"/>
				<circle fill="#293F54" cx="37.826" cy="25.29" r="0.5"/>
				<circle fill="#293F54" cx="40.351" cy="25.29" r="0.5"/>
				<circle fill="#293F54" cx="42.875" cy="25.29" r="0.5"/>
			</g>
			<path fill="#00B1CC" d="M14.313,38.493"/>
			<g>
				<path fill="#293F54" d="M34.426,39.303h-0.497v-0.696c0.721-0.721,1.06-2.158,1.002-4.283l-0.003-0.072
					c-0.017-0.759-0.219-2.994-0.896-3.305c-0.083-0.037-0.169-0.054-0.254-0.049c-0.003,0-0.006-0.002-0.008-0.002h-1.384
					c-0.002,0-0.003,0.001-0.004,0.001s-0.001-0.001-0.002-0.001c-0.6,0.017-1.027,1.056-1.161,1.62h-2.19
					c-0.135-0.564-0.562-1.604-1.163-1.62c0,0,0,0.001-0.001,0.001c0,0-0.001-0.001-0.003-0.001h-1.385
					c-0.002,0-0.005,0.002-0.008,0.002c-0.086-0.005-0.172,0.012-0.254,0.049c-0.677,0.311-0.879,2.546-0.896,3.306l-0.002,0.071
					c-0.058,2.125,0.281,3.563,1.001,4.283v0.696h-0.496c-0.403,0-0.731,0.327-0.731,0.73v1.843c0,0.405,0.328,0.733,0.731,0.733
					h0.534c0.091,0.27,0.344,0.466,0.642,0.466h6.251c0.3,0,0.553-0.196,0.643-0.466h0.535c0.403,0,0.731-0.328,0.731-0.733v-1.843
					C35.157,39.63,34.829,39.303,34.426,39.303z M32.28,35.905h-0.815c-0.092,0-0.166,0.073-0.166,0.165v0.242h-2.352V36.07
					c0-0.092-0.074-0.165-0.166-0.165h-0.814c-0.093,0-0.167,0.073-0.167,0.165v0.242h-0.171c-0.54,0-0.979-0.439-0.979-0.979
					v-1.506c0-0.54,0.438-0.979,0.979-0.979h4.991c0.54,0.001,0.979,0.439,0.979,0.979v1.506c0,0.54-0.439,0.979-0.979,0.979h-0.173
					V36.07C32.445,35.979,32.372,35.905,32.28,35.905z M31.631,36.478v-0.242h0.483v0.242v0.599h-0.483V36.478z M28.133,36.478
					v-0.242h0.483v0.242v0.599h-0.483V36.478z M34.598,34.258v0.075c0.059,2.088-0.286,3.182-0.669,3.758v-2.758v-1.506v-0.006
					c0-0.6-0.41-1.102-0.963-1.254c0.126-0.488,0.419-1.154,0.726-1.312c0.072-0.036,0.134-0.038,0.201-0.008
					C34.26,31.415,34.568,32.977,34.598,34.258z M32.389,31.228L32.389,31.228h0.848c-0.298,0.356-0.506,0.922-0.599,1.289
					c-0.005,0-0.01-0.001-0.015-0.001h-0.004c-0.001,0-0.001,0-0.001,0H31.56C31.707,31.955,32.069,31.236,32.389,31.228z
					 M28.687,32.516h-1.058h-0.001h-0.005c-0.005,0-0.01,0.001-0.014,0.001c-0.093-0.367-0.302-0.933-0.599-1.289h0.845
					c0.001,0,0.001,0,0.002,0C28.177,31.236,28.538,31.955,28.687,32.516z M25.648,34.333l0.001-0.075
					c0.029-1.281,0.337-2.842,0.704-3.01c0.067-0.03,0.13-0.028,0.201,0.008c0.307,0.157,0.6,0.823,0.726,1.312
					c-0.554,0.152-0.963,0.654-0.963,1.254v0.006v1.506v2.758C25.935,37.515,25.59,36.421,25.648,34.333z M26.276,42.278h-0.455
					c-0.221,0-0.4-0.18-0.4-0.402v-1.843c0-0.22,0.18-0.399,0.4-0.399h0.455V42.278z M33.248,42.744h-6.251
					c-0.191,0-0.348-0.157-0.348-0.349v-6.199c0.241,0.271,0.588,0.447,0.979,0.447H27.8v0.598c0,0.092,0.074,0.166,0.167,0.166
					h0.814c0.092,0,0.166-0.074,0.166-0.166v-0.598h2.352v0.598c0,0.092,0.074,0.166,0.166,0.166h0.815
					c0.092,0,0.165-0.074,0.165-0.166v-0.598h0.173c0.392,0,0.738-0.176,0.979-0.448v6.2C33.598,42.587,33.441,42.744,33.248,42.744
					z M34.825,41.876c0,0.223-0.18,0.402-0.399,0.402h-0.455v-2.645h0.455c0.22,0,0.399,0.18,0.399,0.399V41.876z"/>
				<path fill="#293F54" d="M32.204,39.45h-4.162c-0.242,0-0.438,0.196-0.438,0.438v1.276c0,0.241,0.196,0.438,0.438,0.438h4.162
					c0.241,0,0.438-0.196,0.438-0.438v-1.276C32.642,39.646,32.445,39.45,32.204,39.45z M32.311,41.164
					c0,0.059-0.048,0.106-0.106,0.106h-4.162c-0.058,0-0.105-0.048-0.105-0.106v-1.276c0-0.059,0.048-0.106,0.105-0.106h4.162
					c0.059,0,0.106,0.048,0.106,0.106V41.164z"/>
			</g>
			<g>
				<path fill="#293F54" d="M17.415,47.188h1.363v0.465h-1.939v-2.504h1.893v0.465h-1.316V47.188z M17.372,46.157h1.205v0.45h-1.205
					V46.157z"/>
				<path fill="#293F54" d="M20.063,47.695c-0.201,0-0.393-0.027-0.576-0.08c-0.184-0.054-0.332-0.124-0.443-0.21l0.196-0.437
					c0.107,0.076,0.234,0.14,0.381,0.188s0.295,0.073,0.445,0.073c0.114,0,0.207-0.012,0.277-0.034s0.122-0.055,0.156-0.095
					c0.033-0.041,0.05-0.087,0.05-0.14c0-0.066-0.026-0.12-0.079-0.159s-0.121-0.071-0.207-0.097s-0.181-0.049-0.284-0.071
					c-0.104-0.022-0.208-0.051-0.312-0.084s-0.198-0.076-0.284-0.129s-0.156-0.122-0.21-0.208s-0.08-0.195-0.08-0.329
					c0-0.143,0.039-0.273,0.116-0.392s0.194-0.212,0.351-0.282s0.353-0.105,0.589-0.105c0.157,0,0.312,0.019,0.465,0.056
					c0.152,0.036,0.287,0.092,0.404,0.166l-0.179,0.439c-0.117-0.066-0.234-0.116-0.351-0.148c-0.117-0.032-0.231-0.048-0.344-0.048
					s-0.204,0.013-0.275,0.039s-0.123,0.061-0.154,0.103c-0.03,0.041-0.046,0.09-0.046,0.145c0,0.064,0.025,0.116,0.078,0.155
					c0.053,0.04,0.122,0.071,0.208,0.095c0.086,0.024,0.181,0.048,0.284,0.072c0.104,0.023,0.207,0.051,0.312,0.082
					c0.104,0.031,0.198,0.073,0.284,0.125c0.086,0.053,0.155,0.122,0.209,0.208s0.081,0.194,0.081,0.325
					c0,0.141-0.04,0.27-0.118,0.387c-0.079,0.116-0.196,0.211-0.353,0.282S20.301,47.695,20.063,47.695z"/>
				<path fill="#293F54" d="M22.345,47.695c-0.201,0-0.393-0.027-0.576-0.08c-0.184-0.054-0.332-0.124-0.443-0.21l0.196-0.437
					c0.107,0.076,0.234,0.14,0.381,0.188s0.295,0.073,0.445,0.073c0.114,0,0.207-0.012,0.277-0.034s0.122-0.055,0.156-0.095
					c0.033-0.041,0.05-0.087,0.05-0.14c0-0.066-0.026-0.12-0.079-0.159s-0.121-0.071-0.207-0.097s-0.181-0.049-0.284-0.071
					c-0.104-0.022-0.208-0.051-0.312-0.084s-0.198-0.076-0.284-0.129s-0.156-0.122-0.21-0.208s-0.08-0.195-0.08-0.329
					c0-0.143,0.039-0.273,0.116-0.392s0.194-0.212,0.351-0.282s0.353-0.105,0.589-0.105c0.157,0,0.312,0.019,0.465,0.056
					c0.152,0.036,0.287,0.092,0.404,0.166l-0.179,0.439c-0.117-0.066-0.234-0.116-0.351-0.148c-0.117-0.032-0.231-0.048-0.344-0.048
					s-0.204,0.013-0.275,0.039s-0.123,0.061-0.154,0.103c-0.03,0.041-0.046,0.09-0.046,0.145c0,0.064,0.025,0.116,0.078,0.155
					c0.053,0.04,0.122,0.071,0.208,0.095c0.086,0.024,0.181,0.048,0.284,0.072c0.104,0.023,0.207,0.051,0.312,0.082
					c0.104,0.031,0.198,0.073,0.284,0.125c0.086,0.053,0.155,0.122,0.209,0.208s0.081,0.194,0.081,0.325
					c0,0.141-0.04,0.27-0.118,0.387c-0.079,0.116-0.196,0.211-0.353,0.282S22.583,47.695,22.345,47.695z"/>
				<path fill="#293F54" d="M24.38,47.188h1.363v0.465h-1.939v-2.504h1.893v0.465H24.38V47.188z M24.337,46.157h1.205v0.45h-1.205
					V46.157z"/>
				<path fill="#293F54" d="M26.204,47.652v-2.504h0.479l1.478,1.803h-0.232v-1.803h0.572v2.504h-0.476l-1.481-1.803h0.232v1.803
					H26.204z"/>
				<path fill="#293F54" d="M29.613,47.652V45.62h-0.801v-0.472h2.182v0.472h-0.801v2.032H29.613z"/>
				<path fill="#293F54" d="M31.306,47.652v-2.504h0.58v2.504H31.306z"/>
				<path fill="#293F54" d="M32.15,47.652l1.116-2.504h0.572l1.12,2.504h-0.608l-0.916-2.211h0.229l-0.92,2.211H32.15z
					 M32.709,47.116l0.153-0.44h1.288l0.157,0.44H32.709z"/>
				<path fill="#293F54" d="M35.22,47.652v-2.504h0.58v2.031h1.255v0.473H35.22z"/>
				<path fill="#293F54" d="M38.393,47.652v-2.504h0.576v2.504H38.393z M38.911,47.08l-0.032-0.669l1.198-1.263h0.645l-1.08,1.162
					l-0.322,0.344L38.911,47.08z M40.106,47.652l-0.891-1.091l0.379-0.412l1.188,1.503H40.106z"/>
				<path fill="#293F54" d="M41.04,47.652v-2.504h0.58v2.504H41.04z"/>
				<path fill="#293F54" d="M42.731,47.652V45.62h-0.801v-0.472h2.182v0.472h-0.801v2.032H42.731z"/>
			</g>
		</g>
	</g>
	<path fill="#98C020" d="M29.011,7.008c0.309,0,0.575-0.107,0.8-0.324c0.199-0.191,0.304-0.391,0.313-0.6
		c0.009-0.141-0.046-0.281-0.163-0.418c-0.116-0.137-0.263-0.205-0.437-0.205c-0.3,0-0.573,0.1-0.819,0.299
		c-0.244,0.199-0.372,0.408-0.38,0.625C28.308,6.801,28.536,7.008,29.011,7.008z"/>
	<path fill="#FFFFFF" d="M37.515,11.229l-0.14-0.186c-0.095,0.109-0.214,0.225-0.361,0.348c-0.179,0.148-0.302,0.223-0.37,0.223
		c-0.094,0-0.154-0.02-0.178-0.061c-0.024-0.039-0.035-0.109-0.029-0.213c0-0.039,0.03-0.191,0.092-0.455s0.095-0.465,0.101-0.602
		c0.004-0.203-0.033-0.359-0.111-0.467C36.414,9.684,36.241,9.627,36,9.646c-0.281,0.025-0.574,0.135-0.88,0.332
		c-0.128,0.084-0.251,0.184-0.37,0.297c0.213-0.891,0.321-1.498,0.326-1.824c0.005-0.484-0.194-0.734-0.599-0.748
		c-0.458-0.016-0.794,0.242-1.006,0.775c0.089-0.039,0.174-0.059,0.251-0.059c0.064,0,0.131,0.039,0.2,0.117
		c0.103,0.125,0.146,0.314,0.125,0.57c-0.014,0.189-0.059,0.592-0.134,1.207c-0.016,0.154-0.032,0.297-0.046,0.428
		c-0.029,0.021-0.057,0.043-0.088,0.063c-0.374,0.25-0.716,0.375-1.022,0.375c-0.408,0-0.608-0.154-0.6-0.461
		c0.017-0.535,0.107-1.234,0.274-2.1h0.887c0.067,0,0.101-0.029,0.101-0.088l0.11-0.535c0.018-0.084-0.019-0.125-0.11-0.125h-0.837
		c0.199-0.949,0.337-1.607,0.411-1.975c0.017-0.066-0.033-0.1-0.148-0.1c-0.219,0-0.501,0.092-0.85,0.275
		c-0.375,0.199-0.58,0.4-0.612,0.6l-0.2,1.199h-0.513c-0.066,0-0.104,0.029-0.112,0.086l-0.112,0.537
		c-0.017,0.084,0.021,0.125,0.112,0.125h0.514c-0.126,0.723-0.222,1.32-0.285,1.797c-0.124,0.123-0.266,0.254-0.428,0.389
		c-0.299,0.25-0.507,0.375-0.623,0.375c-0.268,0-0.396-0.18-0.389-0.537c0.125-0.783,0.242-1.428,0.35-1.936
		c0.033-0.299-0.015-0.543-0.144-0.73s-0.33-0.27-0.604-0.244c-0.176,0.018-0.441,0.184-0.8,0.5c-0.266,0.242-0.533,0.482-0.8,0.725
		l0.288,0.338c0.232-0.176,0.374-0.264,0.424-0.264c0.15,0,0.225,0.109,0.225,0.324c0,0.043-0.081,0.352-0.243,0.924
		c-0.041,0.146-0.077,0.283-0.108,0.41c-0.375,0.26-0.856,0.531-1.446,0.814c0.301-0.99,0.466-1.914,0.499-2.771
		c0.026-0.691-0.282-1.045-0.923-1.063c-0.774-0.023-1.282,0.408-1.523,1.299c0.135-0.057,0.274-0.086,0.418-0.086
		c0.118,0,0.215,0.047,0.292,0.143c0.075,0.096,0.109,0.207,0.102,0.33c-0.009,0.326-0.175,0.674-0.497,1.043
		c-0.323,0.371-0.61,0.557-0.862,0.557c-0.176,0-0.261-0.15-0.252-0.449c0.009-0.158,0.063-0.479,0.162-0.963
		c0.091-0.457,0.137-0.766,0.137-0.924c0-0.273-0.07-0.496-0.211-0.668c-0.142-0.17-0.347-0.244-0.612-0.219
		c-0.184,0.018-0.454,0.184-0.812,0.5c-0.267,0.242-0.532,0.482-0.8,0.725l0.287,0.338c0.233-0.176,0.376-0.264,0.425-0.264
		c0.158,0,0.233,0.109,0.225,0.324c0,0.018-0.074,0.279-0.225,0.787c-0.149,0.508-0.228,0.887-0.236,1.137
		c-0.017,0.342,0.046,0.604,0.188,0.787c0.174,0.225,0.467,0.32,0.876,0.287c0.485-0.033,0.97-0.213,1.455-0.537
		c0.201-0.133,0.393-0.287,0.576-0.463c-0.066,0.334-0.146,0.617-0.236,0.85c-0.9,0.408-1.549,0.758-1.948,1.049
		c-0.566,0.408-0.87,0.846-0.911,1.311c-0.076,0.808,0.332,1.212,1.223,1.212c0.6,0,1.179-0.365,1.736-1.099
		c0.475-0.623,0.887-1.457,1.236-2.498c0.605-0.299,1.116-0.594,1.535-0.881c-0.014,0.096-0.022,0.182-0.024,0.258
		c-0.009,0.266,0.057,0.482,0.193,0.648c0.138,0.168,0.335,0.25,0.594,0.25c0.557,0,1.116-0.242,1.674-0.725
		c0.162-0.143,0.31-0.291,0.444-0.447c-0.007,0.107-0.01,0.199-0.009,0.273c0.009,0.6,0.358,0.898,1.05,0.898
		c0.565,0,1.174-0.242,1.823-0.725c0.089-0.064,0.17-0.129,0.248-0.193c0,0.002,0,0.006,0,0.01c-0.01,0.236,0.045,0.424,0.162,0.563
		c0.148,0.168,0.389,0.246,0.725,0.238c-0.044-0.105-0.062-0.297-0.051-0.578c0.009-0.32,0.121-0.623,0.334-0.908
		c0.193-0.262,0.373-0.393,0.537-0.393c0.108,0,0.158,0.092,0.148,0.273c-0.006,0.119-0.034,0.289-0.086,0.514
		c-0.051,0.225-0.079,0.418-0.085,0.58c-0.005,0.158,0.034,0.287,0.115,0.385c0.081,0.1,0.197,0.148,0.351,0.148
		c0.33,0,0.66-0.143,0.991-0.43C37.188,11.727,37.377,11.488,37.515,11.229z M23.642,14.039c-0.134,0-0.195-0.059-0.187-0.174
		c0.016-0.217,0.39-0.504,1.122-0.863C24.195,13.693,23.884,14.039,23.642,14.039z"/>
</g>
</svg>
